HIERARCHY
ROOT root
{
	OFFSET	0	13.1	24.9
	CHANNELS 6  Xposition Yposition Zposition Xrotation Yrotation Zrotation
	JOINT spine_1
	{
		OFFSET	0	9.99999	0
		CHANNELS 3  Xrotation Yrotation Zrotation
		JOINT spine_2
		{
			OFFSET	0	112	-10
			CHANNELS 3  Xrotation Yrotation Zrotation
			JOINT spine_3
			{
				OFFSET	0	206.5	19.3
				CHANNELS 3  Xrotation Yrotation Zrotation
				JOINT spine_4
				{
					OFFSET	0	110.4	14.6
					CHANNELS 3  Xrotation Yrotation Zrotation
					JOINT neck_1
					{
						OFFSET	0	71.8	-50.3
						CHANNELS 3  Xrotation Yrotation Zrotation
						JOINT neck_2
						{
							OFFSET	0	86.2	-25.8
							CHANNELS 3  Xrotation Yrotation Zrotation
							JOINT head_ee
							{
								OFFSET	0	179.8	-8.7
								CHANNELS 3  Xrotation Yrotation Zrotation
								End Site
								{
									OFFSET	1	0	0
								}
							}
						}
					}
					JOINT left_clavicle
					{
						OFFSET	-43.2	22.4	-70.8
						CHANNELS 3  Xrotation Yrotation Zrotation
						JOINT left_shoulder
						{
							OFFSET	-93.9	-5.79999	48.7
							CHANNELS 3  Xrotation Yrotation Zrotation
							JOINT left_elbow
							{
								OFFSET	-291.4	-30.8	15.2
								CHANNELS 3  Xrotation Yrotation Zrotation
								JOINT left_lowarm_twist
								{
									OFFSET	-110.7	-3.89999	13.6
									CHANNELS 3  Xrotation Yrotation Zrotation
									JOINT left_hand
									{
										OFFSET	-110.7	-3.89999	13.6
										CHANNELS 3  Xrotation Yrotation Zrotation
										JOINT left_ee
										{
											OFFSET	-80.8	-5.10001	12.1
											CHANNELS 3  Xrotation Yrotation Zrotation
											End Site
											{
												OFFSET	1	0	0
											}
										}
									}
								}
							}
						}
					}
					JOINT right_clavicle
					{
						OFFSET	43.2	22.4	-70.8
						CHANNELS 3  Xrotation Yrotation Zrotation
						JOINT right_shoulder
						{
							OFFSET	93.9	-5.79999	48.7
							CHANNELS 3  Xrotation Yrotation Zrotation
							JOINT right_elbow
							{
								OFFSET	291.4	-30.8	15.2
								CHANNELS 3  Xrotation Yrotation Zrotation
								JOINT right_lowarm_twist
								{
									OFFSET	110.7	-3.89999	13.6
									CHANNELS 3  Xrotation Yrotation Zrotation
									JOINT right_hand
									{
										OFFSET	110.7	-3.89999	13.6
										CHANNELS 3  Xrotation Yrotation Zrotation
										JOINT right_ee
										{
											OFFSET	80.8	-5.10001	12.1
											CHANNELS 3  Xrotation Yrotation Zrotation
											End Site
											{
												OFFSET	1	0	0
											}
										}
									}
								}
							}
						}
					}
				}
			}
		}
	}
	JOINT left_hip
	{
		OFFSET	-82.8	-127.5	0.300001
		CHANNELS 3  Xrotation Yrotation Zrotation
		JOINT left_knee
		{
			OFFSET	-28.2	-396.7	2.2
			CHANNELS 3  Xrotation Yrotation Zrotation
			JOINT left_ankle
			{
				OFFSET	-11.7	-411.3	35.4
				CHANNELS 3  Xrotation Yrotation Zrotation
				JOINT left_toes
				{
					OFFSET	0	-60	-88.6
					CHANNELS 3  Xrotation Yrotation Zrotation
					JOINT left_foot_ee
					{
						OFFSET	-22.5	-16.5	-42.2
						CHANNELS 3  Xrotation Yrotation Zrotation
						End Site
						{
							OFFSET	1	0	0
						}
					}
				}
			}
		}
	}
	JOINT right_hip
	{
		OFFSET	82.8	-127.5	0.300001
		CHANNELS 3  Xrotation Yrotation Zrotation
		JOINT right_knee
		{
			OFFSET	28.2	-396.7	2.2
			CHANNELS 3  Xrotation Yrotation Zrotation
			JOINT right_ankle
			{
				OFFSET	11.7	-411.3	35.4
				CHANNELS 3  Xrotation Yrotation Zrotation
				JOINT right_toes
				{
					OFFSET	0	-60	-88.6
					CHANNELS 3  Xrotation Yrotation Zrotation
					JOINT right_foot_ee
					{
						OFFSET	22.5	-16.5	-42.2
						CHANNELS 3  Xrotation Yrotation Zrotation
						End Site
						{
							OFFSET	1	0	0
						}
					}
				}
			}
		}
	}
}
MOTION
Frames: 7
Frame Time: 0.02
597.003 683.298 -525.158 120.646 -70.8979 118.435 -6.9313 1.14383 1.87708 -6.92992 1.02209 1.94603 -6.88892 0.332434 2.17275 -6.89488 0.671333 2.09304 -5.53924 2.88952 2.91489 -5.51676 3.15819 3.47548 -0.0 0.0 -0.0 3.05298 -0.768442 5.83256 -13.4958 -14.3346 68.6987 0.82958 -22.34 0.163813 -46.3078 -3.64558 4.476 3.24833 18.3988 28.362 -0.0 0.0 -0.0 1.92573 31.1783 -0.641766 10.0507 31.9771 -56.1371 3.18159 57.5926 -1.74914 32.8575 0.0307681 4.14024 -1.09104 -22.2002 -2.52411 0.0 0.0 0.0 10.9285 16.1291 1.64879 -24.8176 0.207435 3.77314 27.7694 14.3015 -3.67995 -40.2603 0.0 0.0 -0.0 0.0 -0.0 -38.1219 -8.877 7.4815 -0.217977 -0.00891437 -0.0322629 -23.5845 -12.4729 -3.55543 31.8911 -0.0 -0.0 0.0 0.0 0.0 
617.974 687.663 -532.846 126.732 -68.8737 125.063 -6.89438 1.29809 1.73119 -6.8935 1.18532 1.81026 -6.85053 0.532497 2.09717 -6.85565 0.856959 1.98682 -4.6447 3.83721 3.73902 -4.60694 4.20955 4.46512 -0.0 0.0 -0.0 3.32764 -1.07231 6.34774 -11.916 -13.5426 68.4083 0.843241 -22.6709 0.169042 -46.2005 -3.6334 4.46958 2.6688 17.7008 24.1873 -0.0 0.0 -0.0 1.82805 31.0748 -0.441158 10.7837 29.5845 -59.0631 2.86601 54.8303 -1.48679 33.2821 0.046696 4.19212 -0.989217 -23.1611 -3.52487 0.0 0.0 0.0 8.5339 16.8208 1.91645 -24.048 0.225663 3.65645 28.2432 19.0161 -3.78945 -39.8264 0.0 0.0 -0.0 0.0 -0.0 -35.6516 -8.59793 8.44832 -5.84711 -0.196202 -0.875523 -20.6872 -16.9617 -3.14328 34.9958 -0.0 -0.0 0.0 0.0 0.0 
643.984 688.997 -538.387 127.476 -68.1039 126.64 -6.70689 1.221 1.50458 -6.70633 1.1228 1.57921 -6.67128 0.554239 1.85666 -6.6751 0.840465 1.74588 -5.96283 1.98394 4.57668 -5.90454 0.286299 4.99063 -0.0 0.0 -0.0 3.76038 -1.28542 7.18083 -11.0189 -12.7439 68.3402 0.808607 -21.829 0.155928 -46.6057 -3.67947 4.49371 2.07868 17.4601 20.1927 -0.0 0.0 -0.0 0.880893 30.7034 1.57418 10.0933 32.3298 -61.3579 2.22866 47.8238 -0.988262 33.7813 0.0659129 4.25296 -0.997088 -23.9661 -3.8212 0.0 0.0 0.0 5.90748 17.3909 2.42115 -22.2203 0.262659 3.37843 31.3207 23.059 -4.21192 -40.1873 0.0 0.0 -0.0 0.0 -0.0 -33.9313 -7.14831 10.1621 -14.2821 -0.319921 -2.16276 -19.7945 -14.9186 -2.99315 36.6746 -0.0 -0.0 0.0 0.0 0.0 
665.55 691.014 -542.209 127.933 -68.0025 127.34 -6.75094 1.21076 1.19152 -6.75087 1.1325 1.26614 -6.72326 0.662823 1.56404 -6.72554 0.901491 1.43977 -6.37819 2.28119 5.76384 -6.28509 0.00128557 6.23609 -0.0 0.0 -0.0 3.90438 -1.90042 7.42903 -9.37672 -11.6924 67.8974 0.879349 -23.5379 0.183211 -47.2126 -3.74878 4.52924 1.67549 13.4459 16.2623 -0.0 0.0 -0.0 -0.15011 30.5208 3.79744 10.1471 30.7744 -64.4994 1.93504 43.7832 -0.777612 32.1978 0.00678675 4.0594 -0.796695 -23.3453 -4.71036 0.0 0.0 0.0 2.83414 17.5178 3.33459 -19.7868 0.298115 3.00674 34.9645 23.0115 -4.60502 -40.1599 0.0 0.0 -0.0 0.0 -0.0 -28.6533 -0.231466 9.81077 -30.3856 -0.0291027 -4.60873 -17.1639 -18.3159 -2.61338 38.5736 -0.0 -0.0 0.0 0.0 0.0 
693.603 689.892 -550.004 125.456 -68.042 125.122 -6.71872 0.950806 0.97267 -6.71863 0.886989 1.0312 -6.70095 0.506761 1.26225 -6.70249 0.699737 1.16639 -3.94259 1.4207 7.05482 -3.79304 -2.82209 7.49866 -0.0 0.0 -0.0 4.02777 -2.50776 7.63898 -7.91213 -9.89193 67.8695 0.924157 -24.598 0.201486 -46.8068 -3.70239 4.50556 1.40588 12.9218 14.3177 -0.0 0.0 -0.0 0.572473 30.2113 2.193 9.19009 28.7131 -65.888 1.46056 35.8843 -0.472959 31.285 -0.0248528 3.94713 -1.07833 -27.4698 -4.84636 0.0 0.0 0.0 -1.13571 16.8569 4.8168 -18.2825 0.312125 2.77636 37.3424 21.8671 -4.81888 -39.7685 0.0 0.0 -0.0 0.0 -0.0 -22.3691 -2.22546 10.8341 -43.3547 0.693867 -6.46141 -21.313 -21.2552 -3.2839 37.7882 -0.0 -0.0 0.0 0.0 0.0 
711.311 693.913 -555.308 126.024 -67.4576 125.939 -6.71518 1.12868 0.863642 -6.71541 1.07144 0.933712 -6.69671 0.712929 1.22943 -6.6977 0.898136 1.10143 -4.4142 1.47182 7.18088 -4.26048 -2.77106 7.61068 -0.0 0.0 -0.0 4.13537 -3.07487 7.82132 -5.00614 -7.1845 67.9982 1.0708 -27.9427 0.26642 -49.7306 -4.04025 4.66874 0.394456 13.2328 7.9352 -0.0 0.0 -0.0 -0.742015 29.6984 5.00422 9.85551 27.8566 -68.9719 1.1544 29.7624 -0.306766 29.783 -0.0730115 3.76133 -1.08714 -28.7264 -5.3261 0.0 0.0 0.0 -2.70389 16.8174 5.744 -18.02 0.31395 2.73612 39.3286 24.8983 -5.09971 -36.8312 0.0 0.0 -0.0 0.0 -0.0 -18.9789 -1.55701 10.7822 -49.5176 1.18041 -7.27505 -24.4712 -19.9045 -3.75311 36.6425 -0.0 -0.0 0.0 0.0 0.0 
724.697 696.866 -558.384 127.732 -68.2448 127.643 -6.61724 1.0863 0.857462 -6.61743 1.02954 0.924847 -6.59958 0.678166 1.20638 -6.60058 0.86017 1.08416 -4.19583 2.34209 6.94796 -4.0582 -1.0264 7.51928 -0.0 0.0 -0.0 3.78718 -3.08968 7.12822 -1.52084 -6.57159 68.059 1.1443 -29.5458 0.301766 -49.9088 -4.0611 4.67812 0.17207 14.5461 7.03887 -0.0 0.0 -0.0 0.151503 30.1572 3.10318 7.35085 25.9426 -68.2128 1.09517 28.4797 -0.277939 28.9015 -0.0989972 3.65173 -1.40915 -28.6308 -3.54757 0.0 0.0 0.0 -2.28656 17.431 6.06445 -17.9578 0.314355 2.7266 36.8526 23.1862 -4.80386 -37.9794 0.0 0.0 -0.0 0.0 -0.0 -17.5818 -0.398227 10.4236 -49.5245 1.18101 -7.27593 -25.0448 -18.6786 -3.82548 35.6926 -0.0 -0.0 0.0 0.0 0.0 
